<?xml version="1.0" encoding="UTF-8"?>
<svg id="Layer_1" xmlns="http://www.w3.org/2000/svg" version="1.1" viewBox="0 0 104.2 90.9">
  <defs>
    <style>
      .st0 { fill: #404042; }
      .st1 { fill: #cd2726; }
    </style>
  </defs>
  <path class="st1" d="M104.2,12.8c0,1.7-.3,3.4-1,4.9-.7,1.5-1.6,2.8-2.7,3.9-1.1,1.1-2.5,2-4,2.7-1.5.7-3.2,1-5,1s-3.4-.3-5-1c-1.5-.7-2.9-1.6-4-2.7s-2-2.4-2.7-3.9c-.7-1.5-1-3.1-1-4.9s.3-3.3,1-4.8c.7-1.5,1.6-2.9,2.7-4,1.1-1.1,2.5-2,4-2.7,1.5-.7,3.2-1,5-1s3.4.3,5,1c1.5.7,2.9,1.6,4,2.7,1.1,1.1,2.1,2.4,2.7,4,.7,1.5,1,3.2,1,4.8"/>
  <path class="st0" d="M18.3,18.2v36.4h18.3c2.5,0,4.9-.5,7.1-1.4s4.1-2.2,5.8-3.9,3-3.6,3.9-5.8c1-2.2,1.4-4.6,1.4-7.1s-.5-4.8-1.4-7.1c-1-2.2-2.3-4.2-3.9-5.8-1.7-1.7-3.6-2.9-5.8-3.9-2.2-.9-4.6-1.4-7.1-1.4h-18.3ZM18.3,90.9H0V0h36.6c3.4,0,6.6.4,9.7,1.3,3.1.9,6,2.1,8.7,3.7,2.7,1.6,5.2,3.5,7.4,5.7,2.2,2.2,4.1,4.7,5.7,7.4,1.6,2.7,2.8,5.6,3.7,8.7s1.3,6.3,1.3,9.6-.4,6.2-1.2,9.1-1.9,5.8-3.4,8.4-3.3,5.1-5.4,7.4-4.5,4.2-7.1,5.8l10.1,23.8h-19.5l-8-18.3h-20.5v18.3h0Z"/>
</svg>
